<svg xmlns="http://www.w3.org/2000/svg" viewBox="0 0 640 360"><filter id="b"><feGaussianBlur stdDeviation="12" /></filter><path fill="#867a70" d="M0 0h640v360H0z"/><g filter="url(#b)" transform="matrix(2.5 0 0 2.5 1.3 1.3)" fill-opacity=".5"><ellipse fill="#f1f2ff" rx="1" ry="1" transform="matrix(53.97153 -87.04717 49.0179 30.39238 198.4 33.2)"/><ellipse fill="#250700" rx="1" ry="1" transform="matrix(-50.29313 -43.31644 33.33998 -38.70982 77.8 46.8)"/><ellipse rx="1" ry="1" transform="matrix(-14.82842 -27.20744 136.99816 -74.66583 248.1 132.7)"/><ellipse fill="#fff" cx="192" cy="37" rx="68" ry="15"/><path fill="#060c0c" d="M176 53h33v26h-33z"/><ellipse fill="#261502" rx="1" ry="1" transform="matrix(-107.82133 27.8118 -4.44598 -17.23624 23.4 64)"/><path fill="#e0e6e6" d="M207 60h49v34h-49z"/><path d="M202.5 146l-33.8 8.7-.5-30.5 13.9-16z"/></g></svg>